<svg width="112" height="111" viewBox="0 0 112 111" fill="none" xmlns="http://www.w3.org/2000/svg">
<g id="Frame 2085665568">
<path id="Vector 2697" d="M19.1462 97.7634L32.731 73.2202L5.20006 80.7308L19.1462 97.7634Z" fill="#20E79D"/>
<g id="Group 2085665334">
<path id="Vector 2696" d="M51.7326 24.2702L49.752 12.8651L63.2953 0L84.9824 7.8467L94.3902 17.9225L88.8161 30.2584L100.402 29.6037L109.739 44.8824L106.294 66.99L92.7035 73.0062L79.9586 69.1137L76.2968 83.2777L64.8514 91.2408L41.8094 82.6713L41.796 65.5981L25.9051 61.9236L19.7344 49.2825L23.6965 23.8509L39.0454 18.5599L51.7326 24.2702Z" fill="#20E79D"/>
<path id="Vector 2726 (Stroke)" opacity="0.9" fill-rule="evenodd" clip-rule="evenodd" d="M84.5041 57.4366L72.1562 51.8438L73.8116 47.0156L86.7633 50.2167L84.5041 57.4366Z" fill="#007D4F"/>
<path id="Vector 2726 (Stroke)_2" opacity="0.9" d="M65.375 38.9712L67.6978 26.4434L74.9176 28.3563L70.2958 40.3265L65.375 38.9712Z" fill="#007D4F"/>
<path id="Line 316 (Stroke)" opacity="0.9" fill-rule="evenodd" clip-rule="evenodd" d="M56.0012 47.4627L42.4691 45.2332L43.9172 39.1254L56.8653 42.8553L56.0012 47.4627Z" fill="#007D4F"/>
<path id="Line 317 (Stroke)" opacity="0.9" fill-rule="evenodd" clip-rule="evenodd" d="M66.6703 54.2593L64.9401 66.384L58.1172 65.6953L61.6844 53.1675L66.6703 54.2593Z" fill="#007D4F"/>
</g>
</g>
</svg>
